<svg width="284" height="40" viewBox="0 0 284 40" fill="none" xmlns="http://www.w3.org/2000/svg">
<g clip-path="url(#clip0_2483_16166)">
<path d="M180.851 0.69722C160.654 1.32217 140.471 2.37036 120.32 3.8418C102.035 4.16585 83.7461 4.4899 65.4606 4.81394C45.3961 5.17106 25.3317 5.52486 5.27048 5.88198C3.32951 5.91504 0.323803 7.34019 0.0262086 9.49279C-0.301145 11.8669 2.63512 12.2637 4.28842 12.2373C17.3264 12.0058 30.3643 11.7743 43.4023 11.5429C37.9761 12.234 32.5566 12.9515 27.1371 13.7021C25.2589 13.9633 22.6368 14.8429 22.0383 16.8963C21.5026 18.7281 23.1758 20.0276 24.9514 20.0607C55.0613 20.5765 85.1746 21.0957 115.285 21.6115C121.693 21.7206 128.101 21.833 134.509 21.9422C125.29 22.9507 116.085 24.1113 106.906 25.424C92.5119 27.4873 78.1778 29.9342 63.9065 32.7217C62.3656 33.0226 60.18 34.3717 59.9452 36.101C59.717 37.7543 61.539 38.8356 63.0005 38.8488C97.2437 39.1464 131.487 39.4473 165.73 39.7449C175.385 39.8276 185.037 39.9136 194.693 39.9962C196.905 40.0161 199.742 39.3845 200.856 37.2121C201.851 35.2678 199.987 33.6508 198.085 33.6343C165.122 33.3466 132.158 33.059 99.1946 32.7713C100.114 32.6324 101.03 32.4902 101.949 32.3547C114.405 30.5096 126.904 28.9455 139.429 27.6659C164.493 25.1066 189.67 23.6814 214.863 23.4004C215.977 23.3871 217.105 23.3805 218.229 23.3739C230.999 23.5922 243.766 23.8137 256.536 24.0319C258.745 24.0683 261.592 23.407 262.7 21.2478C263.718 19.2638 261.813 17.7461 259.929 17.67C246.897 17.1476 233.853 16.9227 220.812 16.9988C203.74 16.7045 186.668 16.4135 169.596 16.1192C139.486 15.6034 109.372 15.0843 79.2624 14.5684C76.8353 14.5254 74.405 14.4858 71.9779 14.4428C87.7438 12.7663 103.536 11.3478 119.348 10.1938C152.312 9.60852 185.279 9.02656 218.242 8.44129C238.307 8.08418 258.371 7.73037 278.432 7.37326C280.274 7.34019 282.979 6.07707 283.531 4.17908C284.074 2.32407 282.387 1.08079 280.618 1.01465C247.377 -0.222016 214.096 -0.331134 180.851 0.69722Z" fill="#F56E14"/>
</g>
<defs>
<clipPath id="clip0_2483_16166">
<rect width="283.634" height="40" fill="white"/>
</clipPath>
</defs>
</svg>
